<svg width="45" height="45" viewBox="0 0 45 45" fill="none" xmlns="http://www.w3.org/2000/svg">
<g clip-path="url(#clip0_3869_9240)">
<path d="M4.94859 9.90878H16.9848C17.3086 9.90878 17.5629 9.65441 17.5629 9.33067C17.5629 9.00693 17.3086 8.75256 16.9848 8.75256H4.94859C4.62485 8.75256 4.37048 9.00693 4.37048 9.33067C4.37048 9.65441 4.63641 9.90878 4.94859 9.90878Z" fill="black"/>
<path d="M22.4537 13.1231H4.94859C4.62485 13.1231 4.37048 13.3774 4.37048 13.7012C4.37048 14.0249 4.62485 14.2793 4.94859 14.2793H22.4537C22.7775 14.2793 23.0318 14.0249 23.0318 13.7012C23.0318 13.3774 22.7775 13.1231 22.4537 13.1231Z" fill="black"/>
<path d="M22.4537 17.5051H4.94859C4.62485 17.5051 4.37048 17.7595 4.37048 18.0832C4.37048 18.407 4.62485 18.6613 4.94859 18.6613H22.4537C22.7775 18.6613 23.0318 18.407 23.0318 18.0832C23.0318 17.7595 22.7775 17.5051 22.4537 17.5051Z" fill="black"/>
<path d="M23.0318 22.4537C23.0318 22.13 22.7775 21.8756 22.4537 21.8756H4.94859C4.62485 21.8756 4.37048 22.13 4.37048 22.4537C4.37048 22.7775 4.62485 23.0319 4.94859 23.0319H22.4537C22.7775 23.0319 23.0318 22.7775 23.0318 22.4537Z" fill="black"/>
<path d="M21.945 26.8243C21.945 26.5005 21.6906 26.2462 21.3669 26.2462H4.94859C4.62485 26.2462 4.37048 26.5005 4.37048 26.8243C4.37048 27.148 4.62485 27.4024 4.94859 27.4024H21.3553C21.6791 27.4024 21.945 27.148 21.945 26.8243Z" fill="black"/>
<path d="M20.8466 31.2063C20.8466 30.8826 20.5922 30.6282 20.2685 30.6282H4.94859C4.62485 30.6282 4.37048 30.8826 4.37048 31.2063C4.37048 31.5301 4.62485 31.7844 4.94859 31.7844H20.2685C20.5922 31.7844 20.8466 31.5185 20.8466 31.2063Z" fill="black"/>
<path d="M19.1701 34.9987H4.94859C4.62485 34.9987 4.37048 35.2531 4.37048 35.5768C4.37048 35.9006 4.62485 36.1549 4.94859 36.1549H19.1701C19.4938 36.1549 19.7482 35.9006 19.7482 35.5768C19.7482 35.2531 19.4938 34.9987 19.1701 34.9987Z" fill="black"/>
<path d="M19.1701 39.3808H4.94859C4.62485 39.3808 4.37048 39.6352 4.37048 39.9589C4.37048 40.2826 4.62485 40.537 4.94859 40.537H19.1701C19.4938 40.537 19.7482 40.2826 19.7482 39.9589C19.7482 39.6352 19.4938 39.3808 19.1701 39.3808Z" fill="black"/>
<path d="M43.1616 6.25514L42.7569 6.05858L43.4391 4.60175C43.6241 4.19707 43.6472 3.74615 43.4969 3.31835C43.3466 2.90211 43.0344 2.56681 42.6297 2.37025C42.2251 2.18525 41.7741 2.16213 41.3463 2.31244C40.9301 2.46275 40.5948 2.77493 40.3982 3.1796L39.7276 4.648L39.323 4.45144C38.4558 4.04676 37.4268 4.41675 37.0105 5.28392L32.8597 14.1405L31.9347 16.1177L24.0378 32.9522C24.0031 33.0216 23.9915 33.1025 23.9799 33.1719L23.7025 41.4967C23.6909 41.7279 23.8296 41.936 24.0378 42.0401C24.1187 42.0748 24.1996 42.0979 24.2806 42.0979C24.4193 42.0979 24.5581 42.0516 24.6621 41.9476L30.8826 36.4093C30.8826 36.4093 30.9866 36.2937 31.0213 36.2243L43.3119 10.0244L43.5432 10.14C43.7281 10.2325 43.7975 10.3828 43.8206 10.4753C43.8553 10.6256 43.8206 10.7875 43.7397 10.9147C41.9476 13.4006 41.1035 15.4355 41.1845 17.1467C41.1845 17.4589 41.4504 17.7017 41.7626 17.7017H41.7857C42.1094 17.6901 42.3522 17.4126 42.3407 17.1005C42.2713 15.6783 43.0575 13.8284 44.6762 11.5969C44.9653 11.1922 45.0694 10.6835 44.9422 10.1863C44.815 9.70067 44.4913 9.30756 44.0403 9.09944L43.8091 8.98382L44.0056 8.56758C44.3988 7.70041 44.0288 6.65982 43.1616 6.25514ZM41.462 3.67678C41.5198 3.54959 41.6238 3.45709 41.751 3.41085C41.8782 3.3646 42.0169 3.3646 42.1441 3.43397C42.2713 3.49178 42.3638 3.59584 42.4101 3.72302C42.4563 3.85021 42.4563 3.98895 42.3869 4.11614L41.7048 5.57297L41.092 5.28392L40.7682 5.13361L41.462 3.67678ZM24.8934 40.2017L25.1015 34.0969L29.4604 36.1434L24.8934 40.2017ZM30.212 35.2184L25.3212 32.9175L32.7325 17.1236L37.6233 19.4245L30.212 35.2184ZM38.1089 18.3839L33.2181 16.083L33.6575 15.1465L38.5483 17.4473L38.1089 18.3839ZM42.9535 8.0704L42.5141 9.00694L39.0455 16.4067L34.1547 14.1059L38.0627 5.76953C38.2014 5.48047 38.5483 5.35329 38.8373 5.49204L40.2248 6.13952L41.751 6.85637L42.6876 7.29574C42.965 7.44605 43.0807 7.78135 42.9535 8.0704Z" fill="black"/>
<path d="M32.8828 44.3294V36.6752C32.8828 36.3515 32.6285 36.0971 32.3047 36.0971C31.981 36.0971 31.7266 36.3515 31.7266 36.6752V43.7513H2.76336C1.87307 43.7513 1.15622 43.0344 1.15622 42.1441V2.76336C1.15622 1.87307 1.87307 1.15622 2.76336 1.15622H26.2461V6.04702C26.2461 6.37076 26.5005 6.62513 26.8243 6.62513H31.7151V11.5159C31.7151 11.8397 31.9694 12.094 32.2932 12.094C32.6169 12.094 32.8713 11.8397 32.8713 11.5159V6.04702C32.8713 6.04702 32.8713 6.00077 32.8713 5.97765C32.8713 5.95452 32.8713 5.9314 32.8713 5.90827C32.8482 5.80421 32.8019 5.71172 32.7325 5.64234L27.2405 0.173433C27.1827 0.115622 27.1249 0.0809353 27.0555 0.0462487C27.0555 0.0462487 26.9283 0.0115622 26.8589 0H2.76336C1.23715 0 0 1.23715 0 2.76336V42.1441C0 43.6704 1.23715 44.9075 2.76336 44.9075H32.2932C32.6169 44.9075 32.8828 44.6531 32.8828 44.3294ZM27.4139 1.97713L30.9057 5.46891H27.4139V1.97713Z" fill="black"/>
</g>
<defs>
<clipPath id="clip0_3869_9240">
<rect width="45" height="44.9075" fill="white"/>
</clipPath>
</defs>
</svg>
