<svg width="46" height="52" viewBox="0 0 46 52" fill="none" xmlns="http://www.w3.org/2000/svg">
<g clip-path="url(#clip0_3869_9273)">
<path d="M36.5495 16.9568C31.8687 16.9568 28.0618 13.1554 28.0618 8.48138C28.0618 3.80736 31.8687 0 36.5495 0C41.2302 0 45.0371 3.80138 45.0371 8.4754C45.0371 13.1494 41.2302 16.9508 36.5495 16.9508V16.9568ZM36.5495 15.7614C40.5838 15.7614 43.84 12.5099 43.84 8.48138C43.84 4.45287 40.5838 1.20138 36.5495 1.20138C32.5152 1.20138 29.259 4.45287 29.259 8.48138C29.259 12.5099 32.5152 15.7614 36.5495 15.7614Z" fill="black"/>
<path fill-rule="evenodd" clip-rule="evenodd" d="M36.5495 11.972L33.0479 8.47541L33.7542 7.77012L36.0467 10.0593V4.98483H37.0463V10.0593L39.3388 7.77012L40.0451 8.47541L36.5435 11.972H36.5495Z" fill="black"/>
<path d="M0.0371094 7.88367V52H37.148V18.72H35.9509V50.8046H1.23424V9.07907H4.66401V21.0929C6.05866 19.7002 7.4593 18.3136 8.85395 16.9209C10.2486 18.3136 11.6492 19.7062 13.0439 21.0929V9.07907H26.2961V7.88367H0.0371094Z" fill="black"/>
<path d="M4.67598 24.1471V25.3425H32.5092V24.1471H4.67598Z" fill="black"/>
<path d="M4.67598 27.6138V28.8092H32.5092V27.6138H4.67598Z" fill="black"/>
<path d="M4.67598 31.0804V32.2758H32.5092V31.0804H4.67598Z" fill="black"/>
<path d="M4.67598 34.5411V35.7365H32.5092V34.5411H4.67598Z" fill="black"/>
<path d="M4.67598 38.0078V39.2032H32.5092V38.0078H4.67598Z" fill="black"/>
<path d="M4.67598 42.0483V43.2437H18.5926V42.0483H4.67598Z" fill="black"/>
<path d="M27.1221 45.4373V46.6327H32.5092V45.4373H27.1221Z" fill="black"/>
</g>
<defs>
<clipPath id="clip0_3869_9273">
<rect width="45" height="52" fill="white" transform="translate(0.0371094)"/>
</clipPath>
</defs>
</svg>
