<svg width="45" height="45" viewBox="0 0 45 45" fill="none" xmlns="http://www.w3.org/2000/svg">
<g clip-path="url(#clip0_3869_9253)">
<path fill-rule="evenodd" clip-rule="evenodd" d="M9.005 16.595V2.6C9.005 1.885 9.295 1.235 9.765 0.765005C10.235 0.295005 10.885 0.00500488 11.6 0.00500488H36.795C37.125 0.00500488 37.435 0.0600049 37.735 0.175005C38.03 0.290005 38.3 0.455005 38.545 0.680005L44.15 5.775C44.43 6.03 44.64 6.32 44.785 6.645C44.93 6.97 45 7.32501 45 7.695V42.4C45 43.115 44.71 43.765 44.24 44.235C43.77 44.705 43.12 45 42.405 45H9.745C9.745 45 9.7 45 9.68 45C7.135 44.985 4.575 44.23 2.735 42.74C-0.704998 39.955 -1.675 34.735 4.45 27.16C4.655 26.905 4.875 26.645 5.135 26.35C5.195 26.28 5.26 26.21 5.32 26.145C5.04 25.765 4.87 25.265 4.87 24.73C4.87 24.16 5.06 23.635 5.37 23.245C5.505 23.075 5.66 22.93 5.835 22.82L4.645 19.99C4.51 19.675 4.45 19.355 4.45 19.05C4.45 18.56 4.6 18.09 4.87 17.695C5.135 17.305 5.51 16.985 5.96 16.795C6.26 16.67 6.585 16.6 6.92 16.6H9L9.005 16.595ZM6.53 26.9C6.41 27.025 6.295 27.15 6.18 27.28C5.995 27.49 5.78 27.75 5.54 28.045C0.0700026 34.81 0.755002 39.325 3.62 41.645C5.21 42.93 7.445 43.58 9.69 43.595C9.71 43.595 9.73 43.595 9.745 43.595H10.015C12.19 43.55 14.325 42.905 15.82 41.665C18.6 39.355 19.13 34.845 13.48 28.05C13.325 27.865 13.23 27.745 13.13 27.625C12.93 27.385 12.735 27.14 12.54 26.915C12.52 26.915 12.5 26.915 12.48 26.915H6.75C6.675 26.915 6.6 26.91 6.525 26.9H6.53ZM13.825 26.26C13.955 26.415 14.085 26.575 14.215 26.73C14.35 26.895 14.48 27.055 14.56 27.15C20.87 34.74 20.055 39.96 16.715 42.735C16.33 43.055 15.915 43.34 15.47 43.59H42.405C42.73 43.59 43.03 43.455 43.245 43.24C43.46 43.025 43.595 42.725 43.595 42.4V8.66H38.83C37.92 8.66 37.095 8.29 36.5 7.695C35.905 7.10001 35.535 6.275 35.535 5.365V1.405H11.6C11.27 1.405 10.975 1.54 10.76 1.755C10.545 1.97 10.41 2.27 10.41 2.595V16.595H12.515C12.89 16.595 13.25 16.68 13.575 16.835C14 17.035 14.355 17.345 14.605 17.72C14.86 18.105 15.01 18.555 15.01 19.025C15.01 19.345 14.94 19.675 14.79 19.995L13.455 22.845C13.61 22.955 13.755 23.09 13.875 23.24C14.185 23.63 14.375 24.155 14.375 24.725C14.375 25.295 14.185 25.82 13.875 26.21C13.86 26.225 13.845 26.245 13.835 26.26H13.825ZM9.71 23.945H6.755C6.655 23.945 6.555 24.01 6.47 24.115C6.35 24.265 6.275 24.48 6.275 24.725C6.275 24.97 6.35 25.185 6.47 25.335C6.555 25.44 6.655 25.505 6.755 25.505H12.485C12.585 25.505 12.685 25.44 12.77 25.335C12.89 25.185 12.965 24.97 12.965 24.725C12.965 24.48 12.89 24.265 12.77 24.115C12.685 24.01 12.585 23.945 12.485 23.945H9.71ZM9.835 22.54H12.045L13.515 19.405C13.57 19.285 13.6 19.155 13.6 19.025C13.6 18.835 13.54 18.655 13.435 18.495C13.325 18.33 13.17 18.19 12.98 18.105C12.845 18.04 12.685 18.005 12.515 18.005H6.925C6.77 18.005 6.63 18.035 6.505 18.085C6.31 18.165 6.15 18.305 6.035 18.475C5.925 18.64 5.86 18.84 5.86 19.05C5.86 19.185 5.885 19.32 5.94 19.445L7.24 22.54H9.645C9.645 22.54 9.685 22.54 9.705 22.54C9.725 22.54 9.745 22.54 9.765 22.54H9.83H9.835ZM10.385 39.255V38.58C10.65 38.505 10.905 38.385 11.13 38.235C11.695 37.845 12.09 37.235 12.09 36.425C12.09 34.66 10.94 34.41 9.785 34.165C9.19 34.035 8.595 33.91 8.595 33.275C8.595 32.985 8.73 32.765 8.93 32.625C9.075 32.52 9.26 32.455 9.45 32.425C9.515 32.415 9.575 32.41 9.64 32.41C9.655 32.41 9.67 32.41 9.68 32.41C9.69 32.41 9.7 32.41 9.71 32.41C9.825 32.41 9.93 32.43 10.035 32.46C10.31 32.545 10.545 32.735 10.645 33.04C10.765 33.41 11.16 33.61 11.53 33.49C11.9 33.37 12.1 32.975 11.98 32.605C11.72 31.815 11.13 31.325 10.44 31.12C10.42 31.115 10.4 31.11 10.38 31.1V30.385C10.38 29.995 10.065 29.68 9.675 29.68C9.285 29.68 8.97 29.995 8.97 30.385V31.085C8.665 31.16 8.375 31.29 8.12 31.47C7.565 31.86 7.18 32.47 7.18 33.265C7.18 35.03 8.33 35.28 9.485 35.525C10.08 35.655 10.675 35.78 10.675 36.415C10.675 36.71 10.535 36.93 10.335 37.07C10.185 37.17 10.005 37.235 9.815 37.265C9.8 37.265 9.785 37.265 9.77 37.27C9.74 37.27 9.71 37.265 9.68 37.265C9.635 37.265 9.59 37.265 9.545 37.28C9.44 37.275 9.335 37.26 9.235 37.225C8.96 37.14 8.725 36.95 8.625 36.635C8.51 36.265 8.115 36.06 7.745 36.175C7.375 36.29 7.17 36.685 7.285 37.055C7.535 37.86 8.13 38.355 8.825 38.565C8.875 38.58 8.925 38.595 8.975 38.605V39.25C8.975 39.64 9.29 39.95 9.68 39.95C10.07 39.95 10.385 39.635 10.385 39.25V39.255ZM21.52 38.295H41.605C41.995 38.295 42.305 37.98 42.305 37.59C42.305 37.2 41.99 36.885 41.605 36.885H21.52C21.13 36.885 20.815 37.2 20.815 37.59C20.815 37.98 21.13 38.295 21.52 38.295ZM19.75 31.935H41.605C41.995 31.935 42.305 31.62 42.305 31.23C42.305 30.84 41.99 30.525 41.605 30.525H19.75C19.36 30.525 19.05 30.84 19.05 31.23C19.05 31.62 19.365 31.935 19.75 31.935ZM16.575 25.58H41.605C41.995 25.58 42.305 25.265 42.305 24.875C42.305 24.485 41.99 24.17 41.605 24.17H16.575C16.185 24.17 15.875 24.485 15.875 24.875C15.875 25.265 16.19 25.58 16.575 25.58ZM25.725 7.56C25.155 6.99 24.41 6.705 23.66 6.705C22.91 6.705 22.165 6.99 21.6 7.56C21.03 8.13 20.745 8.875 20.745 9.625C20.745 10.375 21.03 11.12 21.6 11.69C22.17 12.26 22.915 12.545 23.66 12.545C24.405 12.545 25.155 12.26 25.725 11.69C26.295 11.12 26.58 10.375 26.58 9.625C26.58 8.875 26.295 8.13 25.725 7.56ZM24.73 8.55501C24.435 8.26 24.05 8.11 23.66 8.11C23.27 8.11 22.885 8.26 22.59 8.55501C22.295 8.85001 22.15 9.235 22.15 9.625C22.15 10.015 22.295 10.4 22.59 10.695C22.885 10.99 23.27 11.14 23.66 11.14C24.05 11.14 24.435 10.99 24.73 10.695C25.025 10.4 25.17 10.015 25.17 9.625C25.17 9.235 25.025 8.85001 24.73 8.55501ZM22.48 18.48L32.515 8.44C32.79 8.165 32.79 7.72001 32.515 7.445C32.24 7.17 31.795 7.17 31.52 7.445L21.485 17.485C21.21 17.76 21.21 18.205 21.485 18.48C21.76 18.755 22.205 18.755 22.48 18.48ZM32.405 14.24C31.835 13.67 31.09 13.385 30.345 13.385C29.6 13.385 28.85 13.67 28.285 14.24C27.72 14.81 27.43 15.555 27.43 16.305C27.43 17.055 27.715 17.8 28.285 18.37C28.855 18.94 29.6 19.225 30.345 19.225C31.09 19.225 31.84 18.94 32.405 18.37C32.975 17.8 33.26 17.055 33.26 16.305C33.26 15.555 32.975 14.81 32.405 14.24ZM31.855 16.305C31.855 15.915 31.71 15.53 31.41 15.235C31.115 14.94 30.73 14.79 30.34 14.79C29.95 14.79 29.565 14.94 29.27 15.235C28.975 15.53 28.83 15.915 28.83 16.305C28.83 16.695 28.975 17.08 29.27 17.375C29.565 17.67 29.95 17.82 30.34 17.82C30.73 17.82 31.115 17.675 31.41 17.375C31.705 17.08 31.855 16.695 31.855 16.305ZM43.52 7.255C43.52 7.255 43.505 7.225 43.5 7.21C43.435 7.065 43.34 6.93 43.205 6.81L37.6 1.715C37.48 1.61 37.36 1.53 37.23 1.48C37.14 1.445 37.045 1.425 36.94 1.415V5.365C36.94 5.885 37.155 6.36 37.495 6.7C37.84 7.045 38.31 7.255 38.83 7.255H43.515H43.52Z" fill="black"/>
</g>
<defs>
<clipPath id="clip0_3869_9253">
<rect width="45" height="45" fill="white"/>
</clipPath>
</defs>
</svg>
