<svg width="45" height="29" viewBox="0 0 45 29" fill="none" xmlns="http://www.w3.org/2000/svg">
<g clip-path="url(#clip0_3869_9268)">
<path d="M22.5031 0C16.1743 0 10.8035 4.16564 8.96168 9.88875H3.96168V11.1248H8.63412C8.41162 12.1261 8.28801 13.152 8.28801 14.2151C8.28801 15.2781 8.4178 16.3103 8.63412 17.3053H2.3733L4.40049 15.2596L3.51051 14.3881L0.426452 17.4784L0 17.9234L0.426452 18.3498L3.51669 21.4401L4.40668 20.5686L2.37948 18.5414H8.96786C10.7973 24.2769 16.1681 28.4302 22.5093 28.4302C28.8504 28.4302 34.2151 24.2769 36.0507 18.5414H41.0507V17.3053H36.3782C36.6007 16.3103 36.7243 15.2719 36.7243 14.2151C36.7243 13.1582 36.6007 12.1261 36.3782 11.1248H42.6329L40.6057 13.152L41.4957 14.0235L44.5859 10.9333L45.0124 10.5068L44.5859 10.0618L41.4957 6.97157L40.6057 7.84302L42.6329 9.88875H36.0445C34.2027 4.16564 28.8319 0 22.5031 0ZM22.5031 1.23609C29.6786 1.23609 35.4821 7.03956 35.4821 14.2151C35.4821 21.3906 29.6786 27.1941 22.5031 27.1941C15.3276 27.1941 9.5241 21.3906 9.5241 14.2151C9.5241 7.03956 15.3276 1.23609 22.5031 1.23609ZM21.885 3.70828V5.61805C19.4685 5.90235 17.5587 7.81211 17.5587 10.1978V10.2534C17.7132 11.7553 18.4425 12.8121 19.3758 13.4981C20.1422 14.0606 21.0198 14.419 21.885 14.7157V21.5884C20.4017 21.3535 19.1286 20.2967 18.7763 19.0606L17.5773 19.3881C18.1026 21.2361 19.864 22.6082 21.885 22.843V24.7157H23.1211V22.8245C25.5377 22.5402 27.4475 20.6057 27.4475 18.2262V18.2077C27.398 16.7676 26.7367 15.7169 25.8467 15.0618C25.0309 14.4623 24.0729 14.1224 23.1211 13.8072V6.85414C24.6292 7.07664 25.89 8.08405 26.2299 9.34487L27.4289 9.01731C26.9221 7.13844 25.1545 5.822 23.1211 5.59951V3.70828H21.885ZM21.885 6.85414V13.3807C21.2114 13.1335 20.5933 12.8492 20.1051 12.4907C19.3943 11.9716 18.9184 11.335 18.7948 10.1545C18.8134 8.49815 20.1236 7.1199 21.885 6.85414ZM23.1211 15.1422C23.8937 15.4141 24.5983 15.6922 25.1112 16.0692C25.7664 16.5513 26.1681 17.1261 26.2114 18.2324C26.2114 18.2386 26.2114 18.2447 26.2114 18.2509C26.199 19.9135 24.8888 21.3226 23.1211 21.5946V15.1422Z" fill="black"/>
</g>
<defs>
<clipPath id="clip0_3869_9268">
<rect width="45" height="28.4302" fill="white"/>
</clipPath>
</defs>
</svg>
