<svg width="45" height="45" viewBox="0 0 45 45" fill="none" xmlns="http://www.w3.org/2000/svg">
<g clip-path="url(#clip0_3869_9251)">
<path fill-rule="evenodd" clip-rule="evenodd" d="M32.163 18.395C32.8796 18.395 33.4599 17.82 33.4599 17.11C33.4599 16.4 32.8796 15.825 32.163 15.825C31.4465 15.825 30.8662 16.4 30.8662 17.11C30.8662 17.82 31.4465 18.395 32.163 18.395ZM32.163 19.445C30.8612 19.445 29.8066 18.4 29.8066 17.11C29.8066 15.82 30.8612 14.775 32.163 14.775C33.4649 14.775 34.5195 15.82 34.5195 17.11C34.5195 18.4 33.4649 19.445 32.163 19.45V19.445ZM38.304 21.915C37.5875 21.915 37.0072 22.49 37.0072 23.195C37.0072 23.905 37.5875 24.48 38.2989 24.48C39.0155 24.48 39.5907 23.905 39.5958 23.2C39.5958 22.49 39.0155 21.92 38.2989 21.92L38.304 21.915ZM38.304 20.86C39.6059 20.86 40.6655 21.905 40.6655 23.195C40.6655 24.485 39.6109 25.535 38.309 25.535C37.0072 25.535 35.9475 24.49 35.9475 23.2C35.9475 21.91 37.0021 20.865 38.304 20.865V20.86ZM30.9318 25.235C30.7048 25.05 30.6795 24.715 30.8662 24.49L38.7834 15.14C38.965 14.915 39.3031 14.875 39.5302 15.055C39.7572 15.235 39.7976 15.57 39.6159 15.795C39.6109 15.8 39.6059 15.81 39.6008 15.815L31.6837 25.165C31.497 25.39 31.1589 25.415 30.9318 25.23V25.235ZM1.0647 35.32C1.0647 40.08 4.96019 43.945 9.76396 43.945C14.5677 43.945 18.4683 40.085 18.4683 35.325C18.4683 30.565 14.5728 26.7 9.76901 26.7C4.96524 26.705 1.07479 30.56 1.0647 35.32ZM5.79782 26.48V2.1C5.79782 1.525 6.27215 1.055 6.85243 1.055H33.6516C34.2319 1.055 34.7062 1.52 34.7062 2.1V10.495C29.3222 10.785 25.1945 15.35 25.4872 20.69C25.7597 25.62 29.7309 29.555 34.7062 29.825V38.215C34.7062 38.79 34.2319 39.26 33.6516 39.26H18.6903C20.8853 34.375 18.6651 28.66 13.7402 26.485C11.2122 25.37 8.3309 25.37 5.80287 26.485L5.79782 26.48ZM35.236 11.53C40.0398 11.53 43.9353 15.395 43.9353 20.155C43.9353 24.915 40.0348 28.775 35.231 28.775C30.4272 28.775 26.5317 24.915 26.5317 20.155C26.5368 15.395 30.4323 11.54 35.236 11.53ZM0 35.32C0 31.925 1.79637 28.78 4.73312 27.03V2.1C4.73312 0.94 5.68177 0 6.85243 0H33.6516C34.8223 0 35.7709 0.94 35.7709 2.1V10.495C41.155 10.785 45.2826 15.35 44.9899 20.69C44.7174 25.62 40.7462 29.555 35.7709 29.825V38.215C35.7709 39.375 34.8223 40.315 33.6516 40.315H18.1352C15.3549 44.895 9.35524 46.375 4.73312 43.62C1.79637 41.865 0 38.715 0 35.32ZM9.23413 34.71C8.29558 34.42 7.7708 33.425 8.06347 32.495C8.24008 31.94 8.67403 31.51 9.23413 31.335V34.71ZM10.2988 35.925C11.2374 36.215 11.7622 37.21 11.4695 38.14C11.2929 38.695 10.8589 39.125 10.2988 39.3V35.925ZM9.23413 39.305V35.8C7.69006 35.51 6.67582 34.03 6.96849 32.5C7.18547 31.36 8.08365 30.47 9.23413 30.255V29.59C9.24422 29.3 9.48643 29.07 9.78414 29.08C10.0667 29.09 10.2887 29.31 10.2988 29.59V30.255C11.6411 30.51 12.6149 31.67 12.6149 33.025C12.6149 33.315 12.3778 33.555 12.0801 33.555C11.7824 33.555 11.5452 33.32 11.5452 33.025C11.5452 32.25 11.0355 31.57 10.2938 31.335V34.84C11.8379 35.13 12.8571 36.605 12.5645 38.14C12.3475 39.28 11.4443 40.17 10.2938 40.39V41.055C10.2837 41.345 10.0415 41.575 9.74378 41.565C9.4612 41.555 9.23918 41.335 9.22909 41.055V40.39C7.88686 40.135 6.91298 38.975 6.91298 37.62C6.91298 37.33 7.15015 37.09 7.44786 37.09C7.74557 37.09 7.98273 37.325 7.98273 37.62C7.98273 38.395 8.49237 39.075 9.23413 39.31V39.305ZM20.8348 31.16C20.8348 31.45 21.072 31.685 21.3697 31.69H31.1791C31.4717 31.69 31.7139 31.455 31.7139 31.16C31.7139 30.865 31.4768 30.63 31.1791 30.63H21.3697C21.077 30.63 20.8348 30.865 20.8348 31.16ZM25.3863 25.655C25.3863 25.365 25.1491 25.13 24.8565 25.13H17.3228C17.0302 25.12 16.7829 25.35 16.7728 25.64C16.7627 25.93 16.9948 26.175 17.2875 26.185C17.2976 26.185 17.3077 26.185 17.3178 26.185H24.8514C25.1441 26.185 25.3863 25.95 25.3863 25.655ZM23.9987 20.155C23.9987 19.865 23.7615 19.625 23.4638 19.625H9.32496C9.03229 19.615 8.78504 19.845 8.77495 20.135C8.76486 20.425 8.99697 20.67 9.28964 20.68C9.29973 20.68 9.30982 20.68 9.31991 20.68H23.4587C23.7514 20.68 23.9886 20.445 23.9936 20.155H23.9987ZM9.32496 15.18H24.8565C25.1491 15.19 25.3964 14.96 25.4065 14.67C25.4166 14.38 25.1845 14.135 24.8918 14.125C24.8817 14.125 24.8716 14.125 24.8615 14.125H9.33001C9.03734 14.115 8.79009 14.345 8.77999 14.635C8.7699 14.925 9.00202 15.17 9.29468 15.18C9.30478 15.18 9.31487 15.18 9.32496 15.18ZM8.79009 9.145C8.79009 9.435 9.02725 9.67 9.31991 9.675H31.174C31.4667 9.675 31.7089 9.44 31.7089 9.145C31.7089 8.85 31.4717 8.615 31.174 8.615H9.32496C9.03229 8.615 8.79513 8.85 8.79009 9.14V9.145Z" fill="black"/>
</g>
<defs>
<clipPath id="clip0_3869_9251">
<rect width="45" height="45" fill="white"/>
</clipPath>
</defs>
</svg>
