<svg width="45" height="45" viewBox="0 0 45 45" fill="none" xmlns="http://www.w3.org/2000/svg">
<g clip-path="url(#clip0_3869_9257)">
<path d="M44.3182 43.6364H40.0909V42.8864C40.0909 41.3182 38.7955 40.0227 37.2273 40.0227H29.8636L25.9091 20.8636L24.1364 12.2727C24.75 11.7954 25.0909 11.0454 25.0909 10.2273C25.0909 8.79544 23.9318 7.63635 22.5 7.63635C21.0682 7.63635 19.9091 8.79544 19.9091 10.2273C19.9091 11.0454 20.3182 11.7954 20.8636 12.2727L19.7045 17.9318L16.9091 31.5682L15.1364 40.0909H7.77273C6.20455 40.0909 4.90909 41.3864 4.90909 42.9545V43.6364H0.681818C0.272727 43.6364 0 43.9091 0 44.3182C0 44.7273 0.272727 45 0.681818 45H44.3182C44.7273 45 45 44.7273 45 44.3182C45 43.9091 44.7273 43.6364 44.3182 43.6364ZM20.8636 19.0909L23.8636 20.9318L20.1136 22.8409L20.8636 19.0909ZM27.1364 33.6136L19.4318 31.5682L26.0455 28.2273L27.1364 33.6136ZM25.6364 26.0454L20.7955 24L24.8182 22.0227L25.6364 26.0454ZM19.6364 25.0227L24.8864 27.2727L18.4773 30.4773L19.6364 25.0227ZM18.0682 32.5227L26.1818 34.7045L16.6364 39.4773L18.0682 32.5227ZM27.5455 35.5227L28.5 40.0227H18.5455L27.5455 35.5227ZM22.5 8.99999C23.1818 8.99999 23.7273 9.54544 23.7273 10.2273C23.7273 10.9091 23.1818 11.5227 22.5 11.5227C21.8182 11.5227 21.2727 10.9773 21.2727 10.2954C21.2727 9.61363 21.8182 8.99999 22.5 8.99999ZM22.5 12.8864C22.6364 12.8864 22.7727 12.8864 22.8409 12.8182L24.2727 19.5682L21.1364 17.6591L22.1591 12.8182C22.2955 12.8182 22.3636 12.8864 22.5 12.8864ZM6.27273 43.6364V42.8864C6.27273 42.0682 6.95455 41.3864 7.77273 41.3864H37.2273C38.0455 41.3864 38.7273 42.0682 38.7273 42.8864V43.6364H6.27273Z" fill="black"/>
<path d="M31.5682 19.3636C31.2955 19.6364 31.2955 20.0455 31.5682 20.3182C31.7046 20.4545 31.9091 20.5227 32.0455 20.5227C32.1818 20.5227 32.3864 20.4545 32.5227 20.3182C38.0455 14.7955 38.0455 5.72727 32.5227 0.204545C32.25 -0.0681818 31.8409 -0.0681818 31.5682 0.204545C31.2955 0.477273 31.2955 0.886364 31.5682 1.15909C36.6136 6.20455 36.6136 14.3182 31.5682 19.3636Z" fill="black"/>
<path d="M12.9546 20.5227C13.1591 20.5227 13.2955 20.4545 13.4318 20.3182C13.7046 20.0455 13.7046 19.6364 13.4318 19.3636C8.38637 14.3182 8.38637 6.20455 13.4318 1.15909C13.7046 0.886364 13.7046 0.477273 13.4318 0.204545C13.1591 -0.0681818 12.75 -0.0681818 12.4773 0.204545C6.95455 5.72727 6.95455 14.7955 12.4773 20.3182C12.6136 20.4545 12.75 20.5227 12.9546 20.5227Z" fill="black"/>
<path d="M31.5 10.2273C31.5 12.6137 30.5454 14.8637 28.8409 16.5682C28.5682 16.8409 28.5682 17.25 28.8409 17.5227C28.9773 17.6591 29.1818 17.7273 29.3182 17.7273C29.4545 17.7273 29.6591 17.6591 29.7954 17.5227C31.7727 15.5455 32.7954 12.9546 32.7954 10.2273C32.7954 7.50002 31.7045 4.84093 29.7954 2.93184C29.5227 2.65911 29.1136 2.65911 28.8409 2.93184C28.5682 3.20457 28.5682 3.61366 28.8409 3.88639C30.5454 5.59093 31.5 7.84093 31.5 10.2273Z" fill="black"/>
<path d="M15.2046 17.5909C15.3409 17.7273 15.5455 17.7955 15.6818 17.7955C15.8182 17.7955 16.0227 17.7273 16.1591 17.5909C16.4318 17.3182 16.4318 16.9091 16.1591 16.6364C14.4546 14.9318 13.5 12.6818 13.5 10.2955C13.5 7.90911 14.4546 5.65911 16.1591 3.95456C16.4318 3.68183 16.4318 3.27274 16.1591 3.00002C15.8864 2.72729 15.4773 2.72729 15.2046 3.00002C13.2273 4.97729 12.2046 7.5682 12.2046 10.2955C12.1364 13.0227 13.2273 15.6137 15.2046 17.5909Z" fill="black"/>
<path d="M26.1136 14.8636C26.25 15 26.4545 15.0682 26.5909 15.0682C26.7273 15.0682 26.9318 15 27.0682 14.8636C28.2955 13.6363 28.9773 12 28.9773 10.2954C28.9773 8.59089 28.2955 6.95452 27.0682 5.72725C26.7955 5.45452 26.3864 5.45452 26.1136 5.72725C25.8409 5.99998 25.8409 6.40907 26.1136 6.6818C27.0682 7.63634 27.6136 8.9318 27.6136 10.2954C27.6136 11.6591 27.0682 12.9545 26.1136 13.9091C25.8409 14.1136 25.8409 14.5909 26.1136 14.8636Z" fill="black"/>
<path d="M17.9318 14.8636C18.0682 15 18.2727 15.0682 18.4091 15.0682C18.5454 15.0682 18.75 15 18.8864 14.8636C19.1591 14.5909 19.1591 14.1818 18.8864 13.9091C16.9091 11.9318 16.9091 8.65907 18.8864 6.6818C19.1591 6.40907 19.1591 5.99998 18.8864 5.72725C18.6136 5.45452 18.2045 5.45452 17.9318 5.72725C15.4091 8.1818 15.4091 12.3409 17.9318 14.8636Z" fill="black"/>
</g>
<defs>
<clipPath id="clip0_3869_9257">
<rect width="45" height="45" fill="white"/>
</clipPath>
</defs>
</svg>
