<svg width="46" height="45" viewBox="0 0 46 45" fill="none" xmlns="http://www.w3.org/2000/svg">
<g clip-path="url(#clip0_3869_9270)">
<path d="M0.962378 27.8556C0.962378 28.5543 1.2311 29.253 1.76854 29.7366L4.67073 32.6926C4.83196 32.8538 5.15443 32.9076 5.36941 32.7463C7.62666 31.0803 10.6901 31.349 12.6786 33.2838C14.6671 35.2723 14.8821 38.3357 13.2161 40.593C13.0548 40.8079 13.1086 41.1304 13.2698 41.2916L16.172 44.1938C16.6557 44.6775 17.3544 45 18.053 45C18.7517 45 19.4504 44.7313 19.9341 44.1938L45.1938 18.9878C45.6775 18.5041 46 17.8054 46 17.1068C46 16.4081 45.7313 15.7094 45.1938 15.2257L42.2917 12.2698C42.1304 12.1086 41.808 12.0548 41.593 12.216C39.3357 13.8821 36.2723 13.6134 34.2838 11.6786C32.2952 9.69007 32.0803 6.62665 33.7463 4.3694C33.9076 4.15442 33.8538 3.8857 33.6926 3.67072L30.7904 0.768539C29.7693 -0.2526 28.0494 -0.2526 26.9746 0.768539L1.76854 25.9746C1.2311 26.512 0.962378 27.1569 0.962378 27.8556ZM18.1068 43.9251C17.6768 43.9251 17.2469 43.7639 16.9781 43.4414L14.3447 40.8617C16.0107 38.2282 15.6883 34.7886 13.431 32.5313C11.1738 30.2741 7.73415 29.8979 5.10068 31.6177L2.52096 28.9842C1.87603 28.3393 1.87603 27.3182 2.52096 26.727L20.0953 9.09889L36.8097 25.8133L19.2354 43.4414C18.9129 43.7639 18.5367 43.9251 18.1068 43.9251ZM29.9842 1.52096L32.564 4.10068C30.8979 6.73414 31.2204 10.1738 33.4776 12.431C35.7349 14.6883 39.1745 15.0645 41.808 13.3447L44.3877 15.9244C44.9789 16.5156 44.9789 17.5905 44.3877 18.1817L37.5622 25.0072L20.9015 8.34647L27.727 1.52096C28.3719 0.876028 29.3931 0.876028 29.9842 1.52096Z" fill="black"/>
<path d="M26.5587 29.5173L16.45 19.4085L15.6899 20.1686L25.7987 30.2774L26.5587 29.5173Z" fill="black"/>
</g>
<defs>
<clipPath id="clip0_3869_9270">
<rect width="45" height="45.0376" fill="white" transform="translate(46) rotate(90)"/>
</clipPath>
</defs>
</svg>
