<svg width="45" height="39" viewBox="0 0 45 39" fill="none" xmlns="http://www.w3.org/2000/svg">
<g clip-path="url(#clip0_3869_9265)">
<path d="M39.4691 28.1018C38.2651 27.5187 34.6906 25.6962 33.4302 25.0219V23.6004C33.7688 22.9808 34.0322 22.343 34.1827 21.6504C34.6906 21.3042 35.1045 20.5388 35.4996 19.2266C35.9135 17.8416 35.8758 16.9121 35.4431 16.3472C35.3491 16.2196 35.2362 16.1103 35.0857 16.0374C35.5184 13.6317 35.2738 11.8275 34.3144 10.6794C33.7312 9.96866 33.0351 9.6953 32.546 9.56773C31.8499 8.00044 29.63 6.81586 27.7864 7.18035C27.3537 7.27147 26.714 7.30792 25.9239 7.30792C25.2655 7.30792 24.607 7.27147 24.0238 7.23502C24.1555 5.52193 23.8545 4.17334 23.0644 3.29857C22.5188 2.69717 21.898 2.44203 21.4653 2.33268C20.8069 0.911186 18.8503 -0.346291 16.8938 0.0546439C15.3135 0.364457 11.9084 -2.8953e-05 11.8708 -2.8953e-05C11.6639 -0.0182533 11.4381 0.0364196 11.2876 0.182214C11.1371 0.309784 11.0431 0.510251 11.0431 0.728943C11.0431 1.11165 11.1371 1.49436 11.3253 1.8224C8.95485 3.73595 9.14298 6.92521 9.42517 8.54717C9.31229 8.62006 9.21823 8.71119 9.14298 8.82053C8.71029 9.38549 8.69147 10.2603 9.08654 11.6088C9.36873 12.5383 9.72617 13.5042 10.347 13.9051C10.4975 14.543 10.7421 15.1626 11.0619 15.7458V17.0761C9.82024 17.7322 6.39632 19.4817 5.30519 20.0103C4.51505 20.393 3.74373 20.885 2.99122 21.4682C1.01589 23.0355 0.0188141 25.0766 0.0188141 27.5187C0.0188141 27.6827 0.0188141 27.8103 0.0188141 27.9378C0.0188141 28.0654 0.0188141 28.2112 0.0188141 28.4299C0.0188141 29.5416 0.733697 30.307 1.88127 30.4346C1.9189 30.4346 1.95652 30.4346 2.01296 30.4346H12.3411C10.8737 31.9472 10.0836 33.7696 10.0836 35.9383C10.0836 36.1023 10.0836 36.2299 10.1024 36.3757C10.1024 36.5215 10.1212 36.6673 10.1212 36.9042C10.1212 38.0523 10.8549 38.8359 12.0401 38.9635C12.0778 38.9635 12.1154 38.9635 12.1718 38.9635H42.9118C42.9118 38.9635 43.0059 38.9635 43.0435 38.9635C44.2475 38.8359 44.9624 38.0705 44.9624 36.9042C44.9624 36.7584 44.9624 36.6126 44.9624 36.4668C44.9624 36.2845 44.9812 36.1205 44.9812 35.9383C44.9812 33.4051 43.9089 31.2182 41.8771 29.6145C41.087 28.9948 40.278 28.4846 39.4503 28.0836L39.4691 28.1018ZM28.1062 8.62006C29.4419 8.3467 31.041 9.47661 31.2479 10.3878C31.3232 10.7159 31.6242 10.9346 31.9628 10.9528C31.9816 10.9528 32.6401 10.9892 33.148 11.6088C33.6371 12.2285 34.1074 13.5588 33.4678 16.3654C33.4114 16.5841 33.4678 16.8028 33.6183 16.9668C33.7688 17.149 33.9946 17.2219 34.2203 17.2037C34.2203 17.2037 34.4084 17.5135 34.0322 18.8257C33.6559 20.1014 33.3737 20.393 33.4302 20.4112C33.0916 20.4476 32.8282 20.6845 32.7717 21.0126C32.6401 21.7233 32.3955 22.4159 32.0192 23.0355C31.944 23.1448 31.9064 23.2724 31.9064 23.4V25.0584C31.2855 25.4593 29.6865 26.3341 27.523 26.3341C25.3595 26.3341 23.7605 25.4593 23.1584 25.0584V23.4C23.1584 23.2724 23.1208 23.1448 23.0456 23.0355C22.6693 22.3976 22.4059 21.7233 22.2931 21.0126C22.2366 20.6845 22.0673 20.4659 21.7287 20.4476C21.7287 20.4476 21.4089 20.2107 21.0138 18.8621C20.6752 17.6775 20.8069 17.3131 20.8069 17.2948C21.0326 17.2948 21.2584 17.1855 21.3901 17.0215C21.5217 16.8392 21.5782 16.6205 21.5406 16.4018C21.2772 15.2719 20.6187 11.4631 23.4218 9.80464C23.6288 9.67707 23.7605 9.47661 23.7793 9.23969C23.7793 9.03922 23.7228 8.85698 23.61 8.71119C24.2684 8.76586 25.0962 8.80231 25.9051 8.80231C26.8081 8.80231 27.5418 8.74763 28.0874 8.63829L28.1062 8.62006ZM10.4975 11.2261C10.1965 10.1874 10.2906 9.80464 10.2906 9.7682C10.5163 9.7682 10.7232 9.65885 10.8737 9.49483C11.0054 9.31259 11.0619 9.0939 11.0242 8.87521C10.7609 7.79997 10.1401 4.19156 12.7926 2.62427C12.9996 2.4967 13.1313 2.29623 13.1501 2.05932C13.1501 1.8953 13.1125 1.73128 13.0184 1.58549C14.26 1.67661 16.0849 1.7495 17.2136 1.51259C18.5305 1.23922 19.9791 2.33268 20.1672 3.171C20.2425 3.49904 20.5435 3.73595 20.9009 3.73595C20.9009 3.73595 21.4841 3.75418 21.9356 4.28268C22.4436 4.84763 22.6505 5.84997 22.5376 7.1439H22.5188C22.3119 7.12567 22.0861 7.18035 21.9356 7.32614C21.7663 7.45371 21.6911 7.65418 21.6722 7.87287C21.6722 8.29203 21.7663 8.69296 21.9732 9.03922C19.4712 11.0439 19.6593 14.4154 19.9603 16.1103C19.8474 16.1831 19.7345 16.2925 19.6405 16.4018C19.3583 16.7481 19.283 17.2402 19.3207 17.878C18.4553 18.1878 17.5711 18.3883 16.6681 18.3883C14.6175 18.3883 13.1125 17.5682 12.5481 17.1855V15.6182C12.5481 15.4906 12.5105 15.3631 12.454 15.2537C12.0966 14.6523 11.852 14.0145 11.7391 13.3402C11.6827 13.0121 11.5322 12.7934 11.1936 12.7752C11.1936 12.7752 10.8926 12.5565 10.5163 11.2808L10.4975 11.2261ZM2.05059 28.9948C1.65552 28.9584 1.54264 28.8308 1.54264 28.4481C1.54264 28.193 1.54264 28.0107 1.52383 27.8649C1.52383 27.7556 1.52383 27.6645 1.52383 27.5369C1.52383 25.514 2.31396 23.892 3.95067 22.6163C4.60912 22.0878 5.28637 21.6687 5.98244 21.3406C7.11121 20.7939 10.4599 19.099 11.7768 18.3883C12.5481 18.8803 14.2977 19.8098 16.7057 19.8098C17.7028 19.8098 18.681 19.6093 19.6405 19.2813C19.9227 20.2472 20.3177 21.2495 20.9574 21.6687C21.1079 22.343 21.3712 22.999 21.7099 23.6187V25.0402C20.4306 25.7145 16.7998 27.5733 15.6522 28.1201C15.1442 28.357 14.6363 28.6668 14.1283 29.0131H2.0694L2.05059 28.9948ZM43.4762 36.3939C43.4762 36.5761 43.4574 36.7402 43.4574 36.9224C43.4574 37.3416 43.3069 37.4874 42.893 37.542C42.893 37.542 42.893 37.542 42.8742 37.542H12.2283C12.2283 37.542 12.2283 37.542 12.2094 37.542C11.7768 37.5056 11.6451 37.3416 11.6451 36.9224C11.6451 36.649 11.6451 36.4668 11.6263 36.3028C11.6263 36.1934 11.6263 36.0841 11.6263 35.9565C11.6263 33.8243 12.454 32.1294 14.166 30.7626C14.862 30.2159 15.5769 29.7602 16.2918 29.414C17.4582 28.849 21.0326 27.0448 22.3871 26.3159C23.1773 26.8261 25.0209 27.8103 27.5606 27.8103C30.1003 27.8103 31.944 26.8261 32.7529 26.3159C34.1074 27.0448 37.663 28.8673 38.8294 29.414C39.5443 29.7602 40.2592 30.2159 40.9553 30.7626C42.6484 32.1112 43.495 33.8607 43.495 35.9565C43.495 36.1023 43.495 36.2481 43.495 36.3939H43.4762Z" fill="black"/>
</g>
<defs>
<clipPath id="clip0_3869_9265">
<rect width="45" height="39" fill="white"/>
</clipPath>
</defs>
</svg>
