<svg width="45" height="45" viewBox="0 0 45 45" fill="none" xmlns="http://www.w3.org/2000/svg">
<g clip-path="url(#clip0_3869_9255)">
<path fill-rule="evenodd" clip-rule="evenodd" d="M31.9982 29.7482C36.1286 30.5036 39.5036 31.7411 41.5286 33.2839C42.6857 34.1679 43.3929 35.1161 43.3929 36.1607C43.3929 36.8679 43.0554 37.5268 42.4929 38.1536C41.8339 38.8929 40.8536 39.5679 39.6482 40.1786C35.775 42.1232 29.5393 43.3768 22.5 43.3768C15.4607 43.3768 9.225 42.1232 5.35179 40.1786C4.13036 39.5679 3.16607 38.8929 2.50714 38.1536C1.94464 37.5268 1.60714 36.8518 1.60714 36.1607C1.60714 35.1161 2.31429 34.1679 3.47143 33.2839C5.49643 31.7411 8.87143 30.5196 13.0018 29.7482C13.4357 29.6679 13.725 29.25 13.6446 28.8161C13.5643 28.3821 13.1464 28.0929 12.7125 28.1732C8.27678 28.9929 4.67679 30.3589 2.50714 31.9982C0.867857 33.2357 0 34.6821 0 36.1607C0 38.1696 1.65536 40.1143 4.62857 41.625C8.6625 43.6661 15.1714 45 22.5 45C29.8286 45 36.3375 43.6661 40.3714 41.625C43.3446 40.1143 45 38.1696 45 36.1607C45 34.6821 44.1321 33.2518 42.4929 31.9982C40.3232 30.3429 36.7232 28.9768 32.2875 28.1732C31.8536 28.0929 31.4357 28.3821 31.3554 28.8161C31.275 29.25 31.5643 29.6679 31.9982 29.7482ZM22.5 0C14.4161 0 8.83929 5.78571 8.83929 13.0339C8.83929 15.1714 10.0125 18.2089 11.7161 21.4071C15.525 28.5911 21.8732 36.6589 21.8732 36.6589C22.0339 36.8518 22.2589 36.9643 22.5 36.9643C22.7411 36.9643 22.9821 36.8518 23.1268 36.6589C23.1268 36.6589 29.475 28.6393 33.2839 21.4554C34.9714 18.2732 36.1607 15.2357 36.1607 13.0982C36.1607 5.86607 30.5839 0 22.5 0ZM22.5 1.60714C29.6196 1.60714 34.5536 6.73393 34.5536 13.0982C34.5536 15.0429 33.4125 17.7911 31.8696 20.7C28.8482 26.4054 24.1875 32.6411 22.5 34.8429C20.8286 32.6411 16.1518 26.3732 13.1304 20.6518C11.5875 17.7268 10.4464 14.9786 10.4464 13.0339C10.4464 6.66964 15.3804 1.60714 22.5 1.60714ZM22.5 7.23214C18.9482 7.23214 16.0714 10.1089 16.0714 13.6607C16.0714 17.2125 18.9482 20.0893 22.5 20.0893C26.0518 20.0893 28.9286 17.2125 28.9286 13.6607C28.9286 10.1089 26.0518 7.23214 22.5 7.23214ZM22.5 8.83929C25.1679 8.83929 27.3214 10.9929 27.3214 13.6607C27.3214 16.3286 25.1679 18.4821 22.5 18.4821C19.8321 18.4821 17.6786 16.3286 17.6786 13.6607C17.6786 10.9929 19.8321 8.83929 22.5 8.83929Z" fill="black"/>
</g>
<defs>
<clipPath id="clip0_3869_9255">
<rect width="45" height="45" fill="white"/>
</clipPath>
</defs>
</svg>
